<svg id="el_eyZ9mLOS4" data-name="图层 1" xmlns="http://www.w3.org/2000/svg" xmlns:xlink="http://www.w3.org/1999/xlink" viewBox="0 0 260 355"><style>@-webkit-keyframes el_bYx-ky2m4PJ_XuYFm2v2Q_Animation{0%{-webkit-transform: scale(0.8, 0.8);transform: scale(0.8, 0.8);}20%{-webkit-transform: scale(0.8, 0.8);transform: scale(0.8, 0.8);}40%{-webkit-transform: scale(0.8, 0.8);transform: scale(0.8, 0.8);}60%{-webkit-transform: scale(0.8, 0.8);transform: scale(0.8, 0.8);}75%{-webkit-transform: scale(0.8, 0.8);transform: scale(0.8, 0.8);}95%{-webkit-transform: scale(1.6, 1.6);transform: scale(1.6, 1.6);}100%{-webkit-transform: scale(1.6, 1.6);transform: scale(1.6, 1.6);}}@keyframes el_bYx-ky2m4PJ_XuYFm2v2Q_Animation{0%{-webkit-transform: scale(0.8, 0.8);transform: scale(0.8, 0.8);}20%{-webkit-transform: scale(0.8, 0.8);transform: scale(0.8, 0.8);}40%{-webkit-transform: scale(0.8, 0.8);transform: scale(0.8, 0.8);}60%{-webkit-transform: scale(0.8, 0.8);transform: scale(0.8, 0.8);}75%{-webkit-transform: scale(0.8, 0.8);transform: scale(0.8, 0.8);}95%{-webkit-transform: scale(1.6, 1.6);transform: scale(1.6, 1.6);}100%{-webkit-transform: scale(1.6, 1.6);transform: scale(1.6, 1.6);}}@-webkit-keyframes el_0lLR8lIGk_G_55Xz8-a0i_Animation{0%{-webkit-transform: scale(0.8, 0.8);transform: scale(0.8, 0.8);}20%{-webkit-transform: scale(0.8, 0.8);transform: scale(0.8, 0.8);}40%{-webkit-transform: scale(0.8, 0.8);transform: scale(0.8, 0.8);}60%{-webkit-transform: scale(1.6, 1.6);transform: scale(1.6, 1.6);}75%{-webkit-transform: scale(0.8, 0.8);transform: scale(0.8, 0.8);}100%{-webkit-transform: scale(0.8, 0.8);transform: scale(0.8, 0.8);}}@keyframes el_0lLR8lIGk_G_55Xz8-a0i_Animation{0%{-webkit-transform: scale(0.8, 0.8);transform: scale(0.8, 0.8);}20%{-webkit-transform: scale(0.8, 0.8);transform: scale(0.8, 0.8);}40%{-webkit-transform: scale(0.8, 0.8);transform: scale(0.8, 0.8);}60%{-webkit-transform: scale(1.6, 1.6);transform: scale(1.6, 1.6);}75%{-webkit-transform: scale(0.8, 0.8);transform: scale(0.8, 0.8);}100%{-webkit-transform: scale(0.8, 0.8);transform: scale(0.8, 0.8);}}@-webkit-keyframes el_hCivhQF7rEo_Animation{45%{opacity: 1;}46.67%{opacity: 0;}0%{opacity: 1;}100%{opacity: 0;}}@keyframes el_hCivhQF7rEo_Animation{45%{opacity: 1;}46.67%{opacity: 0;}0%{opacity: 1;}100%{opacity: 0;}}@-webkit-keyframes el_EZ04Q-msHua_B12xrOSQk_Animation{0%{-webkit-transform: scale(0.8, 0.8);transform: scale(0.8, 0.8);}20%{-webkit-transform: scale(1.6, 1.6);transform: scale(1.6, 1.6);}40%{-webkit-transform: scale(0.8, 0.8);transform: scale(0.8, 0.8);}100%{-webkit-transform: scale(0.8, 0.8);transform: scale(0.8, 0.8);}}@keyframes el_EZ04Q-msHua_B12xrOSQk_Animation{0%{-webkit-transform: scale(0.8, 0.8);transform: scale(0.8, 0.8);}20%{-webkit-transform: scale(1.6, 1.6);transform: scale(1.6, 1.6);}40%{-webkit-transform: scale(0.8, 0.8);transform: scale(0.8, 0.8);}100%{-webkit-transform: scale(0.8, 0.8);transform: scale(0.8, 0.8);}}@-webkit-keyframes el_nfgUNmFZT_2_Animation{45%{opacity: 1;}46.67%{opacity: 0;}0%{opacity: 1;}100%{opacity: 0;}}@keyframes el_nfgUNmFZT_2_Animation{45%{opacity: 1;}46.67%{opacity: 0;}0%{opacity: 1;}100%{opacity: 0;}}@-webkit-keyframes el_03bw5sEIzq_Hp-PygGbE_Animation{0%{-webkit-transform: translate(0px, 0px);transform: translate(0px, 0px);}10%{-webkit-transform: translate(2px, -3px);transform: translate(2px, -3px);}20%{-webkit-transform: translate(0px, 0px);transform: translate(0px, 0px);}30%{-webkit-transform: translate(2px, -3px);transform: translate(2px, -3px);}40%{-webkit-transform: translate(0px, 0px);transform: translate(0px, 0px);}50%{-webkit-transform: translate(2px, -3px);transform: translate(2px, -3px);}60%{-webkit-transform: translate(0px, 0px);transform: translate(0px, 0px);}70%{-webkit-transform: translate(2px, -3px);transform: translate(2px, -3px);}80%{-webkit-transform: translate(0px, 0px);transform: translate(0px, 0px);}90%{-webkit-transform: translate(2px, -3px);transform: translate(2px, -3px);}100%{-webkit-transform: translate(0px, 0px);transform: translate(0px, 0px);}}@keyframes el_03bw5sEIzq_Hp-PygGbE_Animation{0%{-webkit-transform: translate(0px, 0px);transform: translate(0px, 0px);}10%{-webkit-transform: translate(2px, -3px);transform: translate(2px, -3px);}20%{-webkit-transform: translate(0px, 0px);transform: translate(0px, 0px);}30%{-webkit-transform: translate(2px, -3px);transform: translate(2px, -3px);}40%{-webkit-transform: translate(0px, 0px);transform: translate(0px, 0px);}50%{-webkit-transform: translate(2px, -3px);transform: translate(2px, -3px);}60%{-webkit-transform: translate(0px, 0px);transform: translate(0px, 0px);}70%{-webkit-transform: translate(2px, -3px);transform: translate(2px, -3px);}80%{-webkit-transform: translate(0px, 0px);transform: translate(0px, 0px);}90%{-webkit-transform: translate(2px, -3px);transform: translate(2px, -3px);}100%{-webkit-transform: translate(0px, 0px);transform: translate(0px, 0px);}}@-webkit-keyframes el_ozkKsTq2Dg_7GprE13YZ_Animation{0%{-webkit-transform: translate(0px, 0px);transform: translate(0px, 0px);}10%{-webkit-transform: translate(-2px, -2px);transform: translate(-2px, -2px);}20%{-webkit-transform: translate(0px, 0px);transform: translate(0px, 0px);}30%{-webkit-transform: translate(-2px, -2px);transform: translate(-2px, -2px);}40%{-webkit-transform: translate(0px, 0px);transform: translate(0px, 0px);}50%{-webkit-transform: translate(-2px, -2px);transform: translate(-2px, -2px);}60%{-webkit-transform: translate(0px, 0px);transform: translate(0px, 0px);}70%{-webkit-transform: translate(-2px, -2px);transform: translate(-2px, -2px);}80%{-webkit-transform: translate(0px, 0px);transform: translate(0px, 0px);}90%{-webkit-transform: translate(-2px, -2px);transform: translate(-2px, -2px);}100%{-webkit-transform: translate(0px, 0px);transform: translate(0px, 0px);}}@keyframes el_ozkKsTq2Dg_7GprE13YZ_Animation{0%{-webkit-transform: translate(0px, 0px);transform: translate(0px, 0px);}10%{-webkit-transform: translate(-2px, -2px);transform: translate(-2px, -2px);}20%{-webkit-transform: translate(0px, 0px);transform: translate(0px, 0px);}30%{-webkit-transform: translate(-2px, -2px);transform: translate(-2px, -2px);}40%{-webkit-transform: translate(0px, 0px);transform: translate(0px, 0px);}50%{-webkit-transform: translate(-2px, -2px);transform: translate(-2px, -2px);}60%{-webkit-transform: translate(0px, 0px);transform: translate(0px, 0px);}70%{-webkit-transform: translate(-2px, -2px);transform: translate(-2px, -2px);}80%{-webkit-transform: translate(0px, 0px);transform: translate(0px, 0px);}90%{-webkit-transform: translate(-2px, -2px);transform: translate(-2px, -2px);}100%{-webkit-transform: translate(0px, 0px);transform: translate(0px, 0px);}}#el_eyZ9mLOS4 *{-webkit-animation-duration: 2s;animation-duration: 2s;-webkit-animation-iteration-count: infinite;animation-iteration-count: infinite;-webkit-animation-timing-function: cubic-bezier(0, 0, 1, 1);animation-timing-function: cubic-bezier(0, 0, 1, 1);}#el_c5YrFB5w3J{fill: none;stroke: #212121;stroke-linecap: round;stroke-linejoin: round;stroke-width: 2.23px;-webkit-transform: translate(-1429.95px, -1163.91px);transform: translate(-1429.95px, -1163.91px);}#el_1L3PfZ7oiI{fill: none;stroke: #212121;stroke-linecap: round;stroke-linejoin: round;stroke-width: 2.23px;-webkit-transform: translate(-1429.95px, -1163.91px);transform: translate(-1429.95px, -1163.91px);}#el_brXq8X0LZq{stroke: #212121;stroke-linecap: round;stroke-linejoin: round;fill: #ffe100;stroke-width: 2.15px;-webkit-transform: translate(-1429.95px, -1163.91px);transform: translate(-1429.95px, -1163.91px);}#el_uQKuVEQq-X{stroke: #212121;stroke-linecap: round;stroke-linejoin: round;fill: #ffe100;stroke-width: 2.2px;-webkit-transform: translate(-1429.95px, -1163.91px);transform: translate(-1429.95px, -1163.91px);}#el_zotYeNHXpN{fill: #fffbda;-webkit-transform: translate(-1429.95px, -1163.91px);transform: translate(-1429.95px, -1163.91px);}#el_i7WAh6ReZJ{fill: none;stroke: #212121;stroke-linecap: round;stroke-linejoin: round;stroke-width: 2.15px;-webkit-transform: translate(-1429.95px, -1163.91px);transform: translate(-1429.95px, -1163.91px);}#el_JGN1zH8mOU{fill: #fffbda;-webkit-transform: translate(-1429.95px, -1163.91px);transform: translate(-1429.95px, -1163.91px);}#el_ydPHUSuq6m{fill: none;stroke: #212121;stroke-linecap: round;stroke-linejoin: round;stroke-width: 2.15px;-webkit-transform: translate(-1429.95px, -1163.91px);transform: translate(-1429.95px, -1163.91px);}#el_9mN4pKU2A6{fill: #fffbda;-webkit-transform: translate(-1429.95px, -1163.91px);transform: translate(-1429.95px, -1163.91px);}#el_jrUAatS7Ho{fill: none;stroke: #212121;stroke-linecap: round;stroke-linejoin: round;stroke-width: 2.15px;-webkit-transform: translate(-1429.95px, -1163.91px);transform: translate(-1429.95px, -1163.91px);}#el_89oHisIk19{fill: #fffbda;-webkit-transform: translate(-1429.95px, -1163.91px);transform: translate(-1429.95px, -1163.91px);}#el_u8zq87-Fyi{fill: none;stroke: #212121;stroke-linecap: round;stroke-linejoin: round;stroke-width: 2.15px;-webkit-transform: translate(-1429.95px, -1163.91px);transform: translate(-1429.95px, -1163.91px);}#el_WoL0gEGGHh{fill: #4f4946;}#el_qCeV_wnp1wd{-webkit-clip-path: url(#clip-path);clip-path: url(#clip-path);}#el_J09o8Is-nkf{fill: #ffe100;-webkit-transform: translate(-1429.95px, -1163.91px);transform: translate(-1429.95px, -1163.91px);}#el_2VjVDFqTrKu{fill: #ffe100;}#el_FGIYaQHjCxx{fill: none;stroke: #212121;stroke-linecap: round;stroke-linejoin: round;stroke-width: 2.15px;}#el_fkvooUPoNxI{stroke: #212121;stroke-linecap: round;stroke-linejoin: round;fill: #ffe100;stroke-width: 2.33px;-webkit-transform: translate(-1429.95px, -1163.91px);transform: translate(-1429.95px, -1163.91px);}#el_XRI9mWKcVnM{fill: #fdeabe;-webkit-transform: translate(-1429.95px, -1163.91px);transform: translate(-1429.95px, -1163.91px);}#el_iVP-VzGMeb8{-webkit-clip-path: url(#clip-path-2);clip-path: url(#clip-path-2);}#el_FuBnoazTrQz{fill: #212121;-webkit-transform: translate(-1429.95px, -1163.91px);transform: translate(-1429.95px, -1163.91px);}#el_KnSn1kSOxbZ{fill: none;stroke: #212121;stroke-linecap: round;stroke-linejoin: round;stroke-width: 2.3px;-webkit-transform: translate(-1429.95px, -1163.91px);transform: translate(-1429.95px, -1163.91px);}#el_mxUmjE9Hqcc{fill: #ff6a5f;-webkit-transform: translate(-1429.95px, -1163.91px);transform: translate(-1429.95px, -1163.91px);}#el_nkLpAjxeFTC{fill: #ff6a5f;-webkit-transform: translate(-1429.95px, -1163.91px);transform: translate(-1429.95px, -1163.91px);}#el_839A1hdoKwB{fill: none;stroke: #212121;stroke-linecap: round;stroke-linejoin: round;stroke-width: 2.14px;-webkit-transform: translate(-1429.95px, -1163.91px);transform: translate(-1429.95px, -1163.91px);}#el_degncO7Q4Ev{stroke: #212121;stroke-linecap: round;stroke-linejoin: round;fill: #ffe100;stroke-width: 1.61px;-webkit-transform: translate(-1429.95px, -1163.91px);transform: translate(-1429.95px, -1163.91px);}#el_FRyNin4diD7{stroke: #212121;stroke-linecap: round;stroke-linejoin: round;fill: #ffe100;stroke-width: 1.61px;-webkit-transform: translate(-1429.95px, -1163.91px);transform: translate(-1429.95px, -1163.91px);}#el_gXZyUaF7OeJ{stroke: #212121;stroke-linecap: round;stroke-linejoin: round;stroke-width: 2.15px;fill: #212121;-webkit-transform: translate(-1429.95px, -1163.91px);transform: translate(-1429.95px, -1163.91px);}#el_boSLQHep7sK{stroke: #212121;stroke-linecap: round;stroke-linejoin: round;stroke-width: 2.15px;fill: #212121;-webkit-transform: translate(-1429.95px, -1163.91px);transform: translate(-1429.95px, -1163.91px);}#el_bWHtwPP5zfj{fill: #212121;-webkit-transform: translate(-1429.95px, -1163.91px);transform: translate(-1429.95px, -1163.91px);}#el_LHNr72LcihZ{fill: #212121;-webkit-transform: translate(-1429.95px, -1163.91px);transform: translate(-1429.95px, -1163.91px);}#el_jRtSxIxLOWC{fill: #212121;-webkit-transform: translate(-1429.95px, -1163.91px);transform: translate(-1429.95px, -1163.91px);}#el_DxumtLJK4j4{fill: #fff;}#el_pqasS6Zd3c7{fill: #fff;}#el_3wYbfYVXkq4{fill: #212121;-webkit-transform: translate(-1429.95px, -1163.91px);transform: translate(-1429.95px, -1163.91px);}#el_WwHwdIZiIZN{fill: #fff;}#el_OC67eMtpT1z{fill: #fff;}#el_D-vKaaSjdXd{-webkit-transform: translate(-1429.95px, -1163.91px);transform: translate(-1429.95px, -1163.91px);}#el_pxKpI3_YyjU{-webkit-transform: translate(-1429.95px, -1163.91px);transform: translate(-1429.95px, -1163.91px);}#el_r_TOrjxET6B{fill: #212121;font-size: 42.48px;font-family: DFPShaoNvW5, DFPShaoNvW5-GB;-webkit-transform: translate(0px, 349.37px);transform: translate(0px, 349.37px);}#el_VJ56-hfB4sN{fill: #212121;visibility: hidden;}#el_0lLR8lIGk_G{fill: #212121;}#el_EZ04Q-msHua{fill: #212121;}#el_bYx-ky2m4PJ{fill: #212121;}#el_ozkKsTq2Dg_7GprE13YZ{-webkit-animation-name: el_ozkKsTq2Dg_7GprE13YZ_Animation;animation-name: el_ozkKsTq2Dg_7GprE13YZ_Animation;-webkit-transform-origin: 50% 50%;transform-origin: 50% 50%;transform-box: fill-box;}#el_03bw5sEIzq_Hp-PygGbE{-webkit-animation-name: el_03bw5sEIzq_Hp-PygGbE_Animation;animation-name: el_03bw5sEIzq_Hp-PygGbE_Animation;-webkit-transform-origin: 50% 50%;transform-origin: 50% 50%;transform-box: fill-box;}#el_nfgUNmFZT_2{-webkit-animation-name: el_nfgUNmFZT_2_Animation;animation-name: el_nfgUNmFZT_2_Animation;}#el_VJ56-hfB4sN_zBovS-X6m{-webkit-transform-origin: 50% 50%;transform-origin: 50% 50%;transform-box: fill-box;}#el_EZ04Q-msHua_B12xrOSQk{-webkit-animation-name: el_EZ04Q-msHua_B12xrOSQk_Animation;animation-name: el_EZ04Q-msHua_B12xrOSQk_Animation;-webkit-transform-origin: 50% 50%;transform-origin: 50% 50%;transform-box: fill-box;}#el_hCivhQF7rEo{-webkit-animation-name: el_hCivhQF7rEo_Animation;animation-name: el_hCivhQF7rEo_Animation;}#el_0lLR8lIGk_G_55Xz8-a0i{-webkit-animation-name: el_0lLR8lIGk_G_55Xz8-a0i_Animation;animation-name: el_0lLR8lIGk_G_55Xz8-a0i_Animation;-webkit-transform-origin: 50% 50%;transform-origin: 50% 50%;transform-box: fill-box;}#el_bYx-ky2m4PJ_XuYFm2v2Q{-webkit-animation-name: el_bYx-ky2m4PJ_XuYFm2v2Q_Animation;animation-name: el_bYx-ky2m4PJ_XuYFm2v2Q_Animation;-webkit-transform-origin: 50% 50%;transform-origin: 50% 50%;transform-box: fill-box;}</style><defs><clipPath id="clip-path" transform="translate(-1429.95 -1163.91)"><polygon class="cls-1" points="1536.58 1379.33 1525.73 1417.3 1593.69 1417.57 1580.77 1379.58 1536.58 1379.33 1536.58 1379.33"/></clipPath><clipPath id="clip-path-2" transform="translate(-1429.95 -1163.91)"><path class="cls-1" d="M1558.9,1242c44.55,0,80.69,29.71,80.69,66.28s-36.14,66.29-80.69,66.29-80.69-29.68-80.69-66.29,36.13-66.28,80.68-66.28Z"/></clipPath></defs><title>加载中...</title><path d="M1591,1191.73s-2.44-14.64,16.59-19.52" id="el_c5YrFB5w3J"/><path d="M1510.14,1172.21c19,4.88,16.6,19.52,16.6,19.52" id="el_1L3PfZ7oiI"/><g id="el_ozkKsTq2Dg_7GprE13YZ" data-animator-group="true" data-animator-type="0"><g id="el_ozkKsTq2Dg" data-name="right wing"><path id="el_brXq8X0LZq" d="M1602.06,1380.63a22.54,22.54,0,1,1-22.54,22.54h0A22.54,22.54,0,0,1,1602.06,1380.63Z"/></g></g><g id="el_03bw5sEIzq_Hp-PygGbE" data-animator-group="true" data-animator-type="0"><g id="el_03bw5sEIzq" data-name="left wing"><path id="el_uQKuVEQq-X" d="M1514.78,1379.94a23.11,23.11,0,1,1-23,23.1h0A23,23,0,0,1,1514.78,1379.94Z"/></g></g><path d="M1528.83,1380.42s-11.82,13.24-11.82,22.9,8.06,14.14,15.75,5.92,4.65-22.74,3.58-27.57S1528.83,1380.42,1528.83,1380.42Z" id="el_zotYeNHXpN"/><path d="M1528.83,1380.42s-11.82,13.24-11.82,22.9,8.06,14.14,15.75,5.92,4.65-22.74,3.58-27.57S1528.83,1380.42,1528.83,1380.42Z" id="el_i7WAh6ReZJ"/><path d="M1589.47,1380.42s11.81,13.24,11.81,22.9-8,14.14-15.75,5.92-4.66-22.74-3.58-27.57,7.52-1.25,7.52-1.25Z" id="el_JGN1zH8mOU"/><path d="M1589.47,1380.42s11.81,13.24,11.81,22.9-8,14.14-15.75,5.92-4.66-22.74-3.58-27.57,7.52-1.25,7.52-1.25Z" id="el_ydPHUSuq6m"/><path d="M1526,1416.93c.12,3.86-.69,10.11,1.1,13.54,1.26,2.41,4.46,6.22,12,6,10.93-.36,13.25-13.78,12.89-20s-26,.54-26,.54Z" id="el_9mN4pKU2A6"/><path d="M1526,1416.93c.12,3.86-.69,10.11,1.1,13.54,1.26,2.41,4.46,6.22,12,6,10.93-.36,13.25-13.78,12.89-20s-26,.54-26,.54Z" id="el_jrUAatS7Ho"/><path d="M1567.13,1416.57c0,2.89-.84,10.52.39,12.8a13.76,13.76,0,0,0,13,7.43c7.38-.4,10.64-6.34,11.81-9.29,1.27-3.23.36-7.34.24-10.76l-25.47-.18Z" id="el_89oHisIk19"/><path d="M1567.13,1416.57c0,2.89-.84,10.52.39,12.8a13.76,13.76,0,0,0,13,7.43c7.38-.4,10.64-6.34,11.81-9.29,1.27-3.23.36-7.34.24-10.76l-25.47-.18Z" id="el_u8zq87-Fyi"/><polygon points="106.63 215.41 95.77 253.39 163.73 253.65 150.81 215.66 106.63 215.41 106.63 215.41" id="el_WoL0gEGGHh"/><g id="el_qCeV_wnp1wd"><path d="M1530.15,1395.62" id="el_J09o8Is-nkf"/><polyline points="157.66 231.71 157.66 239.54 100.2 239.54 100.2 231.71" id="el_2VjVDFqTrKu"/></g><polygon points="106.63 215.41 95.77 253.39 163.73 253.65 150.81 215.66 106.63 215.41 106.63 215.41" id="el_FGIYaQHjCxx"/><path d="M1559.08,1186.88c59,0,106.89,44.46,106.89,99.28s-47.87,99.27-106.89,99.27-106.9-44.47-106.9-99.27S1500,1186.88,1559.08,1186.88Z" id="el_fkvooUPoNxI"/><path d="M1560,1242c44.56,0,80.69,29.71,80.69,66.28s-36.13,66.29-80.69,66.29-80.69-29.68-80.69-66.29,36.13-66.28,80.68-66.28Z" id="el_XRI9mWKcVnM"/><g id="el_iVP-VzGMeb8"><path d="M1558.87,1228.36c9.29,0,16.84,6.76,16.84,15.09s-7.55,15.11-16.84,15.11-16.85-6.77-16.85-15.11,7.55-15.09,16.85-15.09Z" id="el_FuBnoazTrQz"/></g><path d="M1558.9,1242c44.55,0,80.69,29.71,80.69,66.28s-36.14,66.29-80.69,66.29-80.69-29.68-80.69-66.29,36.13-66.28,80.68-66.28Z" id="el_KnSn1kSOxbZ"/><path d="M1626.89,1311.54c7.35,0,13.32,3.14,13.32,7s-6,7-13.32,7-13.32-3.14-13.32-7S1619.52,1311.54,1626.89,1311.54Z" id="el_mxUmjE9Hqcc"/><path d="M1492.28,1311c7.34,0,13.32,3.4,13.32,7.61s-6,7.61-13.32,7.61-13.33-3.41-13.33-7.61S1484.92,1311,1492.28,1311Z" id="el_nkLpAjxeFTC"/><path d="M1526.08,1315.68s32.18,27.17,64.77.42" id="el_839A1hdoKwB"/><path d="M1504.56,1164.71a5.8,5.8,0,1,1-5.8,5.8,5.8,5.8,0,0,1,5.8-5.8Z" id="el_degncO7Q4Ev"/><path d="M1613.8,1165.42a5.28,5.28,0,1,1-5.26,5.29v0A5.27,5.27,0,0,1,1613.8,1165.42Z" id="el_FRyNin4diD7"/><path d="M1653.66,1205.58c14.06,16.26,14.06,40-1.32,51.85s-36-14.94-40.85-20.66c-4.53-5.35-19.47-21.52-6.15-36.18,9.5-10.45,40.06-4.56,48.31,5Z" id="el_gXZyUaF7OeJ"/><path d="M1488.74,1194.76c26.13-5.13,34.84,20.26,25.09,34.06s-39.27,44.74-52.14,23.9a37.9,37.9,0,0,1-5.78-23.81c1.32-17,11.27-29.92,32.79-34.15Z" id="el_boSLQHep7sK"/><g id="el_WNz1vmdVndX" data-name="right closed eye"><path id="el_bWHtwPP5zfj" data-name="闭眼 右" d="M1601.69,1294.64a1,1,0,0,0,.78-.33,7.63,7.63,0,0,1,2.88-1.75c2.24-.72,4.49-.11,6.67,1.82a1.07,1.07,0,0,0,1.39,0l2.85-2.38a1.07,1.07,0,1,0-1.37-1.64l-2.16,1.81c-6.44-5-11.77.6-11.82.65a1.09,1.09,0,0,0,0,1.52A1.08,1.08,0,0,0,1601.69,1294.64Z"/></g><g id="el_VEEDtYmpyZn" data-name="left closed eye"><path id="el_LHNr72LcihZ" data-name="闭眼 左" d="M1517.28,1294.64a1,1,0,0,1-.78-.33,7.63,7.63,0,0,0-2.88-1.75c-2.24-.72-4.49-.11-6.67,1.82a1.07,1.07,0,0,1-1.39,0l-2.85-2.38a1.07,1.07,0,1,1,1.37-1.64l2.16,1.81c6.45-5,11.77.6,11.82.65a1.08,1.08,0,0,1,0,1.52A1.06,1.06,0,0,1,1517.28,1294.64Z"/></g><g id="el_hCivhQF7rEo" data-name="left eye"><path d="M1510.64,1280.5c5.32,0,9.62,5.5,9.62,12.3s-4.3,12.3-9.62,12.3-9.63-5.5-9.63-12.3S1505.32,1280.5,1510.64,1280.5Z" id="el_jRtSxIxLOWC"/><ellipse cx="82.25" cy="123.81" rx="1.12" ry="1.67" id="el_DxumtLJK4j4"/><ellipse cx="78.9" cy="130.5" rx="2.23" ry="2.79" id="el_pqasS6Zd3c7"/></g><g id="el_nfgUNmFZT_2" data-name="right eye"><path d="M1608.68,1280.5c5.31,0,9.62,5.5,9.62,12.3s-4.31,12.3-9.62,12.3-9.63-5.5-9.63-12.3S1603.36,1280.5,1608.68,1280.5Z" id="el_3wYbfYVXkq4"/><ellipse cx="180.28" cy="123.81" rx="1.12" ry="1.67" id="el_WwHwdIZiIZN"/><ellipse cx="176.94" cy="130.5" rx="2.23" ry="2.79" id="el_OC67eMtpT1z"/></g><path d="M1505.67,1278.11a12.86,12.86,0,0,0-2.24.84,6.58,6.58,0,0,0-4.2-3.19s-.09.06,0,.09a5.88,5.88,0,0,1,3,3.76c-.43.26-.85.53-1.26.83a.68.68,0,0,0-.17.84c.47.89,1-.4,3.84-1.63a12.65,12.65,0,0,1,10.61.08l.42.22.14.08h0a.32.32,0,0,0,.35,0h0c1.37-1.16,1.57-1.24,1.39-1.43s-.22-.06-1,.35-.54.29-1.25-.09c-.2-.1-.41-.2-.62-.28a1.9,1.9,0,0,1-.9-1,8.47,8.47,0,0,0-2.11-2.75c-.06,0-.14,0-.1.12a8.71,8.71,0,0,1,.89,2.94c-.33-.07-.68-.13-1-.18a9,9,0,0,0-1-.11,10.17,10.17,0,0,0-.73-1.48,7.08,7.08,0,0,0-1.76-1.82c-.08,0-.17.07-.12.16a9.21,9.21,0,0,1,1.18,3.13,14.21,14.21,0,0,0-1.84.22,5.51,5.51,0,0,0-3.61-3.26c-.07,0-.09.08,0,.12A5.4,5.4,0,0,1,1505.67,1278.11Z" id="el_D-vKaaSjdXd"/><path d="M1603.71,1278.11a12.86,12.86,0,0,0-2.24.84,6.59,6.59,0,0,0-4.19-3.19c-.06,0-.1.06,0,.09a6,6,0,0,1,3,3.76,13.71,13.71,0,0,0-1.26.83.66.66,0,0,0-.18.84c.47.89,1-.4,3.84-1.63a12.63,12.63,0,0,1,10.6.08l.43.22.13.08h0a.3.3,0,0,0,.34,0h0c1.38-1.16,1.58-1.24,1.41-1.43s-.23-.06-1,.35-.54.29-1.26-.09c-.2-.1-.4-.2-.61-.28a1.94,1.94,0,0,1-.9-1,8.36,8.36,0,0,0-2.12-2.75c-.06,0-.13,0-.1.12a8.44,8.44,0,0,1,.9,2.94l-1-.18a8.77,8.77,0,0,0-1-.11,11.88,11.88,0,0,0-.72-1.48,7,7,0,0,0-1.78-1.82c-.08,0-.17.07-.12.16a8.83,8.83,0,0,1,1.19,3.13,14.21,14.21,0,0,0-1.84.22,5.51,5.51,0,0,0-3.61-3.26c-.06,0-.09.08,0,.12A5.42,5.42,0,0,1,1603.71,1278.11Z" id="el_pxKpI3_YyjU"/><g id="el_AzvqcFPRjMP"><g id="el_X04N7GSd_Uk" data-name="努力加载中"><text id="el_r_TOrjxET6B">努力加载中</text></g></g><circle id="el_VJ56-hfB4sN" cx="227.43" cy="335.52" r="4.25"/><g id="el_0lLR8lIGk_G_55Xz8-a0i" data-animator-group="true" data-animator-type="2"><circle id="el_0lLR8lIGk_G" cx="243.01" cy="335.52" r="2.83"/></g><g id="el_EZ04Q-msHua_B12xrOSQk" data-animator-group="true" data-animator-type="2"><circle id="el_EZ04Q-msHua" cx="227.43" cy="335.52" r="2.83"/></g><g id="el_bYx-ky2m4PJ_XuYFm2v2Q" data-animator-group="true" data-animator-type="2"><circle id="el_bYx-ky2m4PJ" cx="257.17" cy="335.52" r="2.83"/></g><script>(function(){var a=document.querySelector('#el_eyZ9mLOS4'),b=a.querySelectorAll('style'),c=function(d){b.forEach(function(f){var g=f.textContent;g&amp;&amp;(f.textContent=g.replace(/transform-box:[^;\r\n]*/gi,'transform-box: '+d))})};c('initial'),window.requestAnimationFrame(function(){return c('fill-box')})})();</script></svg>